<?xml version="1.0"?>
<svg xmlns="http://www.w3.org/2000/svg" xmlns:xlink="http://www.w3.org/1999/xlink" version="1.1" id="Capa_1" x="0px" y="0px" viewBox="0 0 512 512" style="enable-background:new 0 0 512 512;" xml:space="preserve" width="512" height="512"><g><g>
	<g>
		<rect x="42.667" y="102.4" width="17.067" height="281.6" data-original="#000000" class="active-path" style="fill:#FFFFFF" data-old_color="#000000"/>
	</g>
</g><g>
	<g>
		<rect x="85.333" y="102.4" width="25.6" height="238.933" data-original="#000000" class="active-path" style="fill:#FFFFFF" data-old_color="#000000"/>
	</g>
</g><g>
	<g>
		<rect x="136.533" y="102.4" width="17.067" height="238.933" data-original="#000000" class="active-path" style="fill:#FFFFFF" data-old_color="#000000"/>
	</g>
</g><g>
	<g>
		<rect x="170.667" y="102.4" width="25.6" height="238.933" data-original="#000000" class="active-path" style="fill:#FFFFFF" data-old_color="#000000"/>
	</g>
</g><g>
	<g>
		<rect x="213.333" y="102.4" width="17.067" height="238.933" data-original="#000000" class="active-path" style="fill:#FFFFFF" data-old_color="#000000"/>
	</g>
</g><g>
	<g>
		<path d="M8.533,51.2C3.413,51.2,0,54.613,0,59.733V102.4h17.067V68.267H51.2V51.2H8.533z" data-original="#000000" class="active-path" style="fill:#FFFFFF" data-old_color="#000000"/>
	</g>
</g><g>
	<g>
		<rect x="247.467" y="102.4" width="17.067" height="281.6" data-original="#000000" class="active-path" style="fill:#FFFFFF" data-old_color="#000000"/>
	</g>
</g><g>
	<g>
		<rect x="324.267" y="102.4" width="25.6" height="238.933" data-original="#000000" class="active-path" style="fill:#FFFFFF" data-old_color="#000000"/>
	</g>
</g><g>
	<g>
		<rect x="375.467" y="102.4" width="17.067" height="238.933" data-original="#000000" class="active-path" style="fill:#FFFFFF" data-old_color="#000000"/>
	</g>
</g><g>
	<g>
		<rect x="409.6" y="102.4" width="25.6" height="238.933" data-original="#000000" class="active-path" style="fill:#FFFFFF" data-old_color="#000000"/>
	</g>
</g><g>
	<g>
		<rect x="452.267" y="102.4" width="17.067" height="281.6" data-original="#000000" class="active-path" style="fill:#FFFFFF" data-old_color="#000000"/>
	</g>
</g><g>
	<g>
		<path d="M17.067,443.733V409.6H0v42.667c0,5.12,3.413,8.533,8.533,8.533H51.2v-17.067H17.067z" data-original="#000000" class="active-path" style="fill:#FFFFFF" data-old_color="#000000"/>
	</g>
</g><g>
	<g>
		<path d="M494.933,409.6v34.133H460.8V460.8h42.667c5.12,0,8.533-3.413,8.533-8.533V409.6H494.933z" data-original="#000000" class="active-path" style="fill:#FFFFFF" data-old_color="#000000"/>
	</g>
</g><g>
	<g>
		<path d="M503.467,51.2H460.8v17.067h34.133V102.4H512V59.733C512,54.613,508.587,51.2,503.467,51.2z" data-original="#000000" class="active-path" style="fill:#FFFFFF" data-old_color="#000000"/>
	</g>
</g><g>
	<g>
		<rect x="76.8" y="358.4" width="17.067" height="25.6" data-original="#000000" class="active-path" style="fill:#FFFFFF" data-old_color="#000000"/>
	</g>
</g><g>
	<g>
		<rect x="110.933" y="358.4" width="17.067" height="25.6" data-original="#000000" class="active-path" style="fill:#FFFFFF" data-old_color="#000000"/>
	</g>
</g><g>
	<g>
		<rect x="145.067" y="358.4" width="17.067" height="25.6" data-original="#000000" class="active-path" style="fill:#FFFFFF" data-old_color="#000000"/>
	</g>
</g><g>
	<g>
		<rect x="179.2" y="358.4" width="17.067" height="25.6" data-original="#000000" class="active-path" style="fill:#FFFFFF" data-old_color="#000000"/>
	</g>
</g><g>
	<g>
		<rect x="213.333" y="358.4" width="17.067" height="25.6" data-original="#000000" class="active-path" style="fill:#FFFFFF" data-old_color="#000000"/>
	</g>
</g><g>
	<g>
		<rect x="281.6" y="358.4" width="17.067" height="25.6" data-original="#000000" class="active-path" style="fill:#FFFFFF" data-old_color="#000000"/>
	</g>
</g><g>
	<g>
		<rect x="315.733" y="358.4" width="17.067" height="25.6" data-original="#000000" class="active-path" style="fill:#FFFFFF" data-old_color="#000000"/>
	</g>
</g><g>
	<g>
		<rect x="349.867" y="358.4" width="17.067" height="25.6" data-original="#000000" class="active-path" style="fill:#FFFFFF" data-old_color="#000000"/>
	</g>
</g><g>
	<g>
		<rect x="384" y="358.4" width="17.067" height="25.6" data-original="#000000" class="active-path" style="fill:#FFFFFF" data-old_color="#000000"/>
	</g>
</g><g>
	<g>
		<rect x="418.133" y="358.4" width="17.067" height="25.6" data-original="#000000" class="active-path" style="fill:#FFFFFF" data-old_color="#000000"/>
	</g>
</g><g>
	<g>
		<rect x="290.133" y="102.4" width="17.067" height="238.933" data-original="#000000" class="active-path" style="fill:#FFFFFF" data-old_color="#000000"/>
	</g>
</g></g> </svg>
